<svg width="28" height="28" viewBox="0 0 28 28" fill="none" xmlns="http://www.w3.org/2000/svg">
<path d="M13.5938 0.5C6.09375 0.5 0 6.59375 0 14.0938C0 21.5938 6.09375 27.6875 13.5938 27.6875C21.0938 27.6875 27.1875 21.5938 27.1875 14.0938C27.1875 6.59375 21.0938 0.5 13.5938 0.5ZM13.5938 1.90625C20.3203 1.90625 25.7812 7.36719 25.7812 14.0938C25.7812 20.8203 20.3203 26.2812 13.5938 26.2812C6.86719 26.2812 1.40625 20.8203 1.40625 14.0938C1.40625 7.36719 6.86719 1.90625 13.5938 1.90625ZM18.5243 10.5662C18.3456 10.5721 18.1642 10.6485 18.0235 10.7892L13.125 15.8749L10.5702 13.1329C10.3124 12.8517 9.86728 12.8279 9.58603 13.0858C9.30478 13.3436 9.28107 13.7892 9.53888 14.0704L12.6096 17.375C12.7502 17.5156 12.9141 17.6094 13.125 17.6094C13.3125 17.6094 13.4998 17.539 13.6404 17.3983L19.0311 11.75C19.2889 11.4688 19.289 11.0236 19.0077 10.7658C18.8788 10.6252 18.703 10.5604 18.5243 10.5662Z" fill="#B26CF1"/>
</svg>
